<svg width="154" height="122" viewBox="0 0 154 122" fill="none" xmlns="http://www.w3.org/2000/svg">
<mask id="mask0_52_34" style="mask-type:alpha" maskUnits="userSpaceOnUse" x="0" y="0" width="154" height="122">
<rect width="154" height="122" fill="#D9D9D9"/>
</mask>
<g mask="url(#mask0_52_34)">
<path fill-rule="evenodd" clip-rule="evenodd" d="M20.2441 106.69C24.4069 110.345 29.4617 112.172 35.4085 112.172H106.77C112.717 112.172 117.772 110.345 121.934 106.69C126.097 103.035 128.178 98.5965 128.178 93.3751V64.8663C128.178 63.5088 128.624 62.2817 129.516 61.1853C130.408 60.0888 131.568 59.3317 132.995 58.914L166 49.2022L161.54 37.2974L128.535 47.0092C124.729 48.1579 121.518 50.0637 118.901 52.7266C116.285 55.3895 114.679 58.4962 114.085 62.0468H14V93.3751C14 98.5965 16.0814 103.035 20.2441 106.69ZM106.77 99.6408H35.4085C33.3865 99.6408 31.6917 99.0404 30.3239 97.8394C28.9562 96.6385 28.2723 95.1504 28.2723 93.3751V74.5781H113.906V93.3751C113.906 95.1504 113.222 96.6385 111.854 97.8394C110.487 99.0404 108.792 99.6408 106.77 99.6408Z" fill="#F5BC63"/>
</g>
<mask id="mask1_52_34" style="mask-type:alpha" maskUnits="userSpaceOnUse" x="27" y="10" width="77" height="47">
<rect x="27" y="10" width="77" height="46.8696" fill="#D9D9D9"/>
</mask>
<g mask="url(#mask1_52_34)">
<path d="M41.4837 51.0407C42.8773 47.8942 43.1013 45.0974 42.1556 42.6501C41.2099 40.2029 39.5923 37.7556 37.3028 35.3084C34.0179 31.8123 31.8528 28.5129 30.8076 25.4102C29.7623 22.3074 29.5881 18.6147 30.285 14.332H41.9316C41.1353 17.6533 41.0108 20.3627 41.5583 22.4604C42.1058 24.558 43.5243 26.8305 45.8138 29.2777C49.5965 33.2982 52.0105 36.8598 53.0557 39.9625C54.1009 43.0653 54.1258 46.758 53.1303 51.0407H41.4837ZM65.3743 51.0407C66.7679 47.8942 67.0167 45.0974 66.1208 42.6501C65.2249 40.2029 63.6322 37.7556 61.3427 35.3084C58.0578 31.8123 55.8678 28.5129 54.7728 25.4102C53.6778 22.3074 53.4787 18.6147 54.1755 14.332H65.8222C65.0259 17.6533 64.9014 20.3627 65.4489 22.4604C65.9964 24.558 67.4149 26.8305 69.7044 29.2777C73.4871 33.2982 75.9011 36.8598 76.9463 39.9625C77.9915 43.0653 78.0164 46.758 77.0209 51.0407H65.3743ZM89.2649 51.0407C90.6585 47.8942 90.9073 45.0974 90.0114 42.6501C89.1155 40.2029 87.5228 37.7556 85.2333 35.3084C81.9484 31.8123 79.7584 28.5129 78.6634 25.4102C77.5684 22.3074 77.3693 18.6147 78.0661 14.332H89.7128C88.9164 17.6533 88.792 20.3627 89.3395 22.4604C89.887 24.558 91.3055 26.8305 93.595 29.2777C97.3777 33.2982 99.7916 36.8598 100.837 39.9625C101.882 43.0653 101.907 46.758 100.912 51.0407H89.2649ZM44.9179 103.482C39.9407 103.482 35.7101 101.952 32.2261 98.893C28.742 95.834 27 92.1194 27 87.7493V61.5289H110.766C111.264 58.5572 112.608 55.957 114.798 53.7283C116.988 51.4995 119.676 49.9045 122.861 48.943L150.484 40.8147L154.217 50.7785L126.594 58.9068C125.399 59.2564 124.429 59.8901 123.682 60.8078C122.936 61.7255 122.562 62.7525 122.562 63.8887V87.7493C122.562 92.1194 120.82 95.834 117.336 98.893C113.852 101.952 109.622 103.482 104.644 103.482H44.9179ZM44.9179 92.9934H104.644C106.337 92.9934 107.755 92.4909 108.9 91.4858C110.045 90.4806 110.617 89.2352 110.617 87.7493V72.0171H38.9453V87.7493C38.9453 89.2352 39.5177 90.4806 40.6624 91.4858C41.8072 92.4909 43.2257 92.9934 44.9179 92.9934Z" fill="#F5BC63"/>
</g>
<path d="M14 63H128V88C128 101.807 116.807 113 103 113H39C25.1929 113 14 101.807 14 88V63Z" fill="#F5BC63"/>
<path d="M48.4414 90.2266C48.5716 90.2266 48.6888 90.194 48.793 90.1289V88.3516C49.6784 87.7526 50.9154 87.2643 52.5039 86.8867C54.1055 86.5091 55.6615 86.3203 57.1719 86.3203C57.862 87.0234 58.4349 88.0781 58.8906 89.4844C59.3594 90.8776 59.6068 92.1406 59.6328 93.2734C59.3724 93.7943 58.9297 94.3542 58.3047 94.9531C57.6927 95.5521 56.9505 96.1055 56.0781 96.6133C53.9167 97.8893 51.4362 98.5273 48.6367 98.5273C44.6263 98.5273 41.4688 97.362 39.1641 95.0312C36.7812 92.6745 35.5898 89.4128 35.5898 85.2461C35.5898 81.0664 36.8919 77.7852 39.4961 75.4023C40.6419 74.3346 41.9766 73.5339 43.5 73C45.0234 72.4531 46.625 72.1797 48.3047 72.1797C51.5859 72.1797 54.2747 72.974 56.3711 74.5625C58.4674 76.151 59.5156 78.1107 59.5156 80.4414C59.5156 82.1992 58.9753 83.5013 57.8945 84.3477C56.8138 85.181 55.349 85.5977 53.5 85.5977C52.4844 85.5977 51.4622 85.3503 50.4336 84.8555C49.4049 84.3477 48.793 83.8724 48.5977 83.4297C48.5977 82.362 48.6172 81.5221 48.6562 80.9102C48.6302 80.8971 48.5846 80.8906 48.5195 80.8906H48.3828C48.1875 80.8906 48.0312 80.9492 47.9141 81.0664C47.8099 81.1706 47.7122 81.3984 47.6211 81.75C47.543 82.1016 47.5039 83.0586 47.5039 84.6211C47.5039 88.3581 47.8164 90.2266 48.4414 90.2266ZM71.4492 90.8906C71.8789 90.8125 72.0938 90.5977 72.0938 90.2461C72.0938 89.8815 71.9766 89.4779 71.7422 89.0352C71.5208 88.5794 71.1888 88.1497 70.7461 87.7461C69.5872 86.7044 68.0182 86.1836 66.0391 86.1836C65.0625 86.1836 64.151 86.3464 63.3047 86.6719C62.4062 86.2161 61.6901 85.4935 61.1562 84.5039C60.6224 83.5143 60.3555 82.4466 60.3555 81.3008C60.3555 78.306 61.6055 75.9948 64.1055 74.3672C66.2539 72.974 68.9036 72.2773 72.0547 72.2773C74.3984 72.2773 76.3711 72.5312 77.9727 73.0391C79.5742 73.5339 80.8828 74.1719 81.8984 74.9531C82.1979 75.8125 82.3477 76.7044 82.3477 77.6289C82.3477 78.5534 82.224 79.3932 81.9766 80.1484C81.7292 80.9036 81.3711 81.5091 80.9023 81.9648C80.4596 81.6393 79.6589 81.3073 78.5 80.9688C77.3411 80.6302 76.2865 80.4609 75.3359 80.4609C74.3854 80.4609 73.7474 80.5195 73.4219 80.6367C73.1094 80.7539 72.9531 80.9362 72.9531 81.1836C72.9531 81.3008 72.9727 81.4115 73.0117 81.5156C73.4674 81.3984 74.0534 81.3398 74.7695 81.3398C77.3086 81.3398 79.3789 81.9388 80.9805 83.1367C82.8685 84.569 83.8125 86.7174 83.8125 89.582C83.8125 92.1081 82.7904 94.2044 80.7461 95.8711C78.5326 97.6549 75.5573 98.5469 71.8203 98.5469C69.763 98.5469 67.9792 98.3906 66.4688 98.0781C64.9583 97.7786 63.487 97.2448 62.0547 96.4766C61.0781 95.0573 60.5898 93.6185 60.5898 92.1602C60.5898 90.6888 61.0911 89.4714 62.0938 88.5078C63.0964 87.5443 64.3268 87.0625 65.7852 87.0625C67.2565 87.0625 68.4544 87.362 69.3789 87.9609C70.3164 88.5599 71.0065 89.5365 71.4492 90.8906ZM95.0039 90.8906C95.4336 90.8125 95.6484 90.5977 95.6484 90.2461C95.6484 89.8815 95.5312 89.4779 95.2969 89.0352C95.0755 88.5794 94.7435 88.1497 94.3008 87.7461C93.1419 86.7044 91.5729 86.1836 89.5938 86.1836C88.6172 86.1836 87.7057 86.3464 86.8594 86.6719C85.9609 86.2161 85.2448 85.4935 84.7109 84.5039C84.1771 83.5143 83.9102 82.4466 83.9102 81.3008C83.9102 78.306 85.1602 75.9948 87.6602 74.3672C89.8086 72.974 92.4583 72.2773 95.6094 72.2773C97.9531 72.2773 99.9258 72.5312 101.527 73.0391C103.129 73.5339 104.438 74.1719 105.453 74.9531C105.753 75.8125 105.902 76.7044 105.902 77.6289C105.902 78.5534 105.779 79.3932 105.531 80.1484C105.284 80.9036 104.926 81.5091 104.457 81.9648C104.014 81.6393 103.214 81.3073 102.055 80.9688C100.896 80.6302 99.8411 80.4609 98.8906 80.4609C97.9401 80.4609 97.3021 80.5195 96.9766 80.6367C96.6641 80.7539 96.5078 80.9362 96.5078 81.1836C96.5078 81.3008 96.5273 81.4115 96.5664 81.5156C97.0221 81.3984 97.6081 81.3398 98.3242 81.3398C100.863 81.3398 102.934 81.9388 104.535 83.1367C106.423 84.569 107.367 86.7174 107.367 89.582C107.367 92.1081 106.345 94.2044 104.301 95.8711C102.087 97.6549 99.112 98.5469 95.375 98.5469C93.3177 98.5469 91.5339 98.3906 90.0234 98.0781C88.513 97.7786 87.0417 97.2448 85.6094 96.4766C84.6328 95.0573 84.1445 93.6185 84.1445 92.1602C84.1445 90.6888 84.6458 89.4714 85.6484 88.5078C86.651 87.5443 87.8815 87.0625 89.3398 87.0625C90.8112 87.0625 92.0091 87.362 92.9336 87.9609C93.8711 88.5599 94.5612 89.5365 95.0039 90.8906Z" fill="#E6E9DF"/>
</svg>
