<svg width="74" height="56" viewBox="0 0 74 56" fill="none" xmlns="http://www.w3.org/2000/svg">
<mask id="mask0_52_35" style="mask-type:alpha" maskUnits="userSpaceOnUse" x="0" y="0" width="74" height="59">
<rect width="73.3853" height="58.1364" fill="#D9D9D9"/>
</mask>
<g mask="url(#mask0_52_35)">
<path fill-rule="evenodd" clip-rule="evenodd" d="M9.64683 50.8406C11.6305 52.5823 14.0392 53.4531 16.873 53.4531H50.8788C53.7126 53.4531 56.1213 52.5823 58.105 50.8406C60.0887 49.0989 61.0805 46.984 61.0805 44.4958V30.9106C61.0805 30.2637 61.293 29.679 61.7181 29.1565C62.1432 28.634 62.6958 28.2732 63.3759 28.0741L79.1035 23.4462L76.9782 17.7732L61.2505 22.4012C59.4369 22.9486 57.9066 23.8567 56.6598 25.1257C55.4129 26.3946 54.6478 27.8751 54.3644 29.567H6.67133V44.4958C6.67133 46.984 7.66316 49.0989 9.64683 50.8406ZM50.8788 47.4816H16.873C15.9096 47.4816 15.1019 47.1955 14.4501 46.6232C13.7984 46.0509 13.4725 45.3418 13.4725 44.4958V35.5386H54.2794V44.4958C54.2794 45.3418 53.9535 46.0509 53.3017 46.6232C52.6499 47.1955 51.8423 47.4816 50.8788 47.4816Z" fill="#222222"/>
</g>
<mask id="mask1_52_35" style="mask-type:alpha" maskUnits="userSpaceOnUse" x="12" y="4" width="38" height="24">
<rect x="12.8663" y="4.76526" width="36.6926" height="22.3347" fill="#D9D9D9"/>
</mask>
<g mask="url(#mask1_52_35)">
<path d="M19.7681 24.3223C20.4322 22.8229 20.539 21.4901 20.0883 20.324C19.6377 19.1578 18.8669 17.9916 17.7759 16.8254C16.2105 15.1594 15.1788 13.5872 14.6807 12.1086C14.1826 10.6301 14.0996 8.8704 14.4316 6.82959H19.9816C19.6021 8.41226 19.5428 9.70339 19.8037 10.703C20.0646 11.7026 20.7406 12.7854 21.8316 13.9516C23.6341 15.8675 24.7845 17.5647 25.2825 19.0432C25.7806 20.5218 25.7925 22.2815 25.3181 24.3223H19.7681ZM31.1527 24.3223C31.8168 22.8229 31.9354 21.4901 31.5084 20.324C31.0815 19.1578 30.3226 17.9916 29.2315 16.8254C27.6662 15.1594 26.6226 13.5872 26.1008 12.1086C25.579 10.6301 25.4841 8.8704 25.8162 6.82959H31.3661C30.9866 8.41226 30.9274 9.70339 31.1882 10.703C31.4491 11.7026 32.1251 12.7854 33.2161 13.9516C35.0187 15.8675 36.169 17.5647 36.6671 19.0432C37.1651 20.5218 37.177 22.2815 36.7026 24.3223H31.1527ZM42.5372 24.3223C43.2013 22.8229 43.3199 21.4901 42.893 20.324C42.4661 19.1578 41.7071 17.9916 40.6161 16.8254C39.0507 15.1594 38.0071 13.5872 37.4853 12.1086C36.9635 10.6301 36.8687 8.8704 37.2007 6.82959H42.7507C42.3712 8.41226 42.3119 9.70339 42.5728 10.703C42.8337 11.7026 43.5096 12.7854 44.6006 13.9516C46.4032 15.8675 47.5535 17.5647 48.0516 19.0432C48.5497 20.5218 48.5615 22.2815 48.0872 24.3223H42.5372ZM21.4047 49.3118C19.0329 49.3118 17.0169 48.583 15.3566 47.1253C13.6964 45.6675 12.8663 43.8974 12.8663 41.815V29.3202H52.7833C53.0205 27.9041 53.6608 26.6651 54.7044 25.603C55.748 24.5409 57.0288 23.7808 58.5467 23.3227L71.7101 19.4493L73.4889 24.1973L60.3255 28.0707C59.7563 28.2373 59.2938 28.5393 58.938 28.9766C58.5823 29.4139 58.4044 29.9033 58.4044 30.4447V41.815C58.4044 43.8974 57.5743 45.6675 55.914 47.1253C54.2538 48.583 52.2378 49.3118 49.866 49.3118H21.4047ZM21.4047 44.3139H49.866C50.6724 44.3139 51.3484 44.0745 51.8939 43.5955C52.4394 43.1165 52.7121 42.523 52.7121 41.815V34.3181H18.5585V41.815C18.5585 42.523 18.8313 43.1165 19.3768 43.5955C19.9223 44.0745 20.5983 44.3139 21.4047 44.3139Z" fill="#222222"/>
</g>
<path d="M6.67133 30.0212H60.9955V41.9344C60.9955 48.5139 55.6618 53.8476 49.0823 53.8476H18.5845C12.005 53.8476 6.67133 48.5139 6.67133 41.9344V30.0212Z" fill="#222222"/>
<path d="M23.4287 42.6057C23.4907 42.6057 23.5466 42.5902 23.5962 42.5592V41.7122C24.0181 41.4268 24.6076 41.1941 25.3646 41.0142C26.1278 40.8343 26.8692 40.7443 27.589 40.7443C27.9178 41.0794 28.1908 41.5819 28.408 42.2521C28.6314 42.916 28.7493 43.5178 28.7617 44.0577C28.6376 44.3059 28.4266 44.5727 28.1288 44.8581C27.8372 45.1435 27.4835 45.4072 27.0678 45.6492C26.0378 46.2573 24.8558 46.5613 23.5217 46.5613C21.6107 46.5613 20.106 46.006 19.0078 44.8953C17.8723 43.7722 17.3045 42.2179 17.3045 40.2324C17.3045 38.2407 17.925 36.6771 19.166 35.5416C19.712 35.0328 20.348 34.6512 21.074 34.3968C21.7999 34.1362 22.5631 34.0059 23.3635 34.0059C24.9271 34.0059 26.2084 34.3844 27.2074 35.1414C28.2064 35.8984 28.7058 36.8322 28.7058 37.9428C28.7058 38.7805 28.4483 39.401 27.9333 39.8043C27.4183 40.2014 26.7203 40.3999 25.8392 40.3999C25.3553 40.3999 24.8682 40.282 24.378 40.0463C23.8878 39.8043 23.5962 39.5778 23.5031 39.3668C23.5031 38.858 23.5124 38.4578 23.531 38.1662C23.5186 38.16 23.4969 38.1569 23.4659 38.1569H23.4007C23.3077 38.1569 23.2332 38.1848 23.1774 38.2407C23.1277 38.2903 23.0812 38.3989 23.0378 38.5664C23.0005 38.734 22.9819 39.19 22.9819 39.9346C22.9819 41.7154 23.1308 42.6057 23.4287 42.6057ZM34.3925 42.9222C34.5973 42.885 34.6997 42.7826 34.6997 42.615C34.6997 42.4413 34.6438 42.249 34.5321 42.038C34.4267 41.8208 34.2684 41.6161 34.0575 41.4237C33.5052 40.9273 32.7576 40.6792 31.8144 40.6792C31.3491 40.6792 30.9147 40.7567 30.5114 40.9118C30.0833 40.6947 29.742 40.3503 29.4876 39.8787C29.2333 39.4072 29.1061 38.8984 29.1061 38.3524C29.1061 36.9253 29.7017 35.8239 30.893 35.0483C31.9168 34.3844 33.1795 34.0524 34.6811 34.0524C35.7979 34.0524 36.7379 34.1734 37.5011 34.4154C38.2643 34.6512 38.8879 34.9552 39.3719 35.3275C39.5146 35.737 39.5859 36.1621 39.5859 36.6026C39.5859 37.0431 39.527 37.4434 39.4091 37.8032C39.2912 38.1631 39.1206 38.4516 38.8972 38.6688C38.6862 38.5137 38.3047 38.3555 37.7524 38.1941C37.2002 38.0328 36.6976 37.9521 36.2447 37.9521C35.7917 37.9521 35.4877 37.9801 35.3326 38.0359C35.1836 38.0918 35.1092 38.1786 35.1092 38.2965C35.1092 38.3524 35.1185 38.4051 35.1371 38.4547C35.3543 38.3989 35.6335 38.371 35.9748 38.371C37.1847 38.371 38.1712 38.6564 38.9344 39.2272C39.8341 39.9098 40.284 40.9335 40.284 42.2986C40.284 43.5023 39.7969 44.5013 38.8228 45.2955C37.7679 46.1456 36.3501 46.5706 34.5694 46.5706C33.589 46.5706 32.739 46.4961 32.0192 46.3472C31.2994 46.2045 30.5983 45.9501 29.9158 45.584C29.4504 44.9077 29.2177 44.2221 29.2177 43.5272C29.2177 42.826 29.4566 42.2459 29.9344 41.7867C30.4122 41.3276 30.9985 41.098 31.6934 41.098C32.3946 41.098 32.9654 41.2407 33.406 41.5261C33.8527 41.8115 34.1816 42.2769 34.3925 42.9222ZM45.617 42.9222C45.8218 42.885 45.9241 42.7826 45.9241 42.615C45.9241 42.4413 45.8683 42.249 45.7566 42.038C45.6511 41.8208 45.4929 41.6161 45.2819 41.4237C44.7297 40.9273 43.982 40.6792 43.0389 40.6792C42.5735 40.6792 42.1392 40.7567 41.7359 40.9118C41.3078 40.6947 40.9665 40.3503 40.7121 39.8787C40.4577 39.4072 40.3305 38.8984 40.3305 38.3524C40.3305 36.9253 40.9262 35.8239 42.1175 35.0483C43.1413 34.3844 44.404 34.0524 45.9055 34.0524C47.0224 34.0524 47.9624 34.1734 48.7256 34.4154C49.4888 34.6512 50.1124 34.9552 50.5963 35.3275C50.739 35.737 50.8104 36.1621 50.8104 36.6026C50.8104 37.0431 50.7515 37.4434 50.6336 37.8032C50.5157 38.1631 50.345 38.4516 50.1217 38.6688C49.9107 38.5137 49.5291 38.3555 48.9769 38.1941C48.4247 38.0328 47.9221 37.9521 47.4691 37.9521C47.0162 37.9521 46.7121 37.9801 46.557 38.0359C46.4081 38.0918 46.3336 38.1786 46.3336 38.2965C46.3336 38.3524 46.343 38.4051 46.3616 38.4547C46.5787 38.3989 46.858 38.371 47.1992 38.371C48.4091 38.371 49.3957 38.6564 50.1589 39.2272C51.0586 39.9098 51.5084 40.9335 51.5084 42.2986C51.5084 43.5023 51.0214 44.5013 50.0472 45.2955C48.9924 46.1456 47.5746 46.5706 45.7938 46.5706C44.8135 46.5706 43.9634 46.4961 43.2437 46.3472C42.5239 46.2045 41.8228 45.9501 41.1402 45.584C40.6749 44.9077 40.4422 44.2221 40.4422 43.5272C40.4422 42.826 40.6811 42.2459 41.1589 41.7867C41.6366 41.3276 42.223 41.098 42.9179 41.098C43.6191 41.098 44.1899 41.2407 44.6304 41.5261C45.0772 41.8115 45.406 42.2769 45.617 42.9222Z" fill="#E6E9DF"/>
</svg>
