<svg xmlns="http://www.w3.org/2000/svg" width="40" height="31" viewBox="0 0 40 31" fill="none">
  <g clip-path="url(#clip0_110_95)">
    <mask id="mask0_110_95" style="mask-type:alpha" maskUnits="userSpaceOnUse" x="0" y="0" width="40" height="32">
      <path d="M39.6677 0H0V31.4251H39.6677V0Z" fill="#D9D9D9"/>
    </mask>
    <g mask="url(#mask0_110_95)">
      <path fill-rule="evenodd" clip-rule="evenodd" d="M5.21434 27.4814C6.28659 28.4228 7.58859 28.8935 9.12037 28.8935H27.5019C29.0337 28.8935 30.3357 28.4228 31.4079 27.4814C32.4802 26.5399 33.0163 25.3967 33.0163 24.0518V16.7084C33.0163 16.3587 33.1312 16.0427 33.361 15.7603C33.5908 15.4778 33.8895 15.2828 34.2571 15.1752L42.7585 12.6736L41.6097 9.60712L33.1082 12.1087C32.1279 12.4046 31.3007 12.8955 30.6268 13.5814C29.9528 14.2673 29.5392 15.0676 29.386 15.9821H3.60596V24.0518C3.60596 25.3967 4.14208 26.5399 5.21434 27.4814ZM27.5019 25.6657H9.12037C8.59962 25.6657 8.16302 25.5111 7.8107 25.2017C7.45843 24.8924 7.28226 24.5091 7.28226 24.0518V19.21H29.34V24.0518C29.34 24.5091 29.1639 24.8924 28.8116 25.2017C28.4592 25.5111 28.0227 25.6657 27.5019 25.6657Z" fill="#E6E9DF"/>
    </g>
    <mask id="mask1_110_95" style="mask-type:alpha" maskUnits="userSpaceOnUse" x="6" y="2" width="21" height="13">
      <path d="M26.7884 2.57581H6.95459V14.6486H26.7884V2.57581Z" fill="#D9D9D9"/>
    </mask>
    <g mask="url(#mask1_110_95)">
      <path d="M10.6853 13.1472C11.0443 12.3367 11.102 11.6162 10.8584 10.9859C10.6148 10.3555 10.1982 9.72517 9.60843 9.09479C8.76227 8.19425 8.20459 7.34441 7.93535 6.54517C7.6661 5.74598 7.62124 4.79479 7.8007 3.69165H10.8007C10.5956 4.54715 10.5635 5.24506 10.7045 5.78539C10.8456 6.32571 11.211 6.91101 11.8007 7.54139C12.775 8.57701 13.3969 9.49441 13.666 10.2936C13.9353 11.0928 13.9417 12.044 13.6853 13.1472H10.6853ZM16.8391 13.1472C17.1981 12.3367 17.2622 11.6162 17.0314 10.9859C16.8006 10.3555 16.3904 9.72517 15.8006 9.09479C14.9545 8.19425 14.3904 7.34441 14.1084 6.54517C13.8263 5.74598 13.775 4.79479 13.9545 3.69165H16.9545C16.7493 4.54715 16.7173 5.24506 16.8583 5.78539C16.9993 6.32571 17.3648 6.91101 17.9545 7.54139C18.9289 8.57701 19.5506 9.49441 19.8199 10.2936C20.0891 11.0928 20.0955 12.044 19.8391 13.1472H16.8391ZM22.9929 13.1472C23.3519 12.3367 23.416 11.6162 23.1852 10.9859C22.9545 10.3555 22.5442 9.72517 21.9545 9.09479C21.1083 8.19425 20.5442 7.34441 20.2622 6.54517C19.9801 5.74598 19.9289 4.79479 20.1083 3.69165H23.1083C22.9032 4.54715 22.8711 5.24506 23.0122 5.78539C23.1532 6.32571 23.5185 6.91101 24.1083 7.54139C25.0826 8.57701 25.7044 9.49441 25.9737 10.2936C26.2429 11.0928 26.2493 12.044 25.9929 13.1472H22.9929ZM11.5699 26.655C10.2879 26.655 9.19816 26.2611 8.3007 25.4731C7.40329 24.6851 6.95459 23.7283 6.95459 22.6027V15.8487H28.5313C28.6596 15.0833 29.0057 14.4135 29.5698 13.8394C30.1339 13.2653 30.8262 12.8545 31.6467 12.6068L38.7621 10.5131L39.7236 13.0796L32.6082 15.1733C32.3005 15.2634 32.0505 15.4266 31.8582 15.663C31.6659 15.8994 31.5698 16.1639 31.5698 16.4566V22.6027C31.5698 23.7283 31.1211 24.6851 30.2236 25.4731C29.3262 26.2611 28.2365 26.655 26.9544 26.655H11.5699ZM11.5699 23.9534H26.9544C27.3903 23.9534 27.7557 23.824 28.0506 23.5651C28.3455 23.3062 28.4929 22.9854 28.4929 22.6027V18.5503H10.0315V22.6027C10.0315 22.9854 10.1789 23.3062 10.4738 23.5651C10.7686 23.824 11.134 23.9534 11.5699 23.9534Z" fill="#E6E9DF"/>
    </g>
    <path d="M3.60596 16.2277H32.9704V22.6672C32.9704 26.2237 30.0873 29.1068 26.5308 29.1068H10.0455C6.48902 29.1068 3.60596 26.2237 3.60596 22.6672V16.2277Z" fill="#E6E9DF"/>
    <path d="M12.6644 23.0301C12.6979 23.0301 12.7281 23.0218 12.7549 23.005V22.5472C12.983 22.3929 13.3016 22.2671 13.7108 22.1699C14.1234 22.0726 14.5241 22.024 14.9132 22.024C15.0909 22.2051 15.2385 22.4767 15.3559 22.839C15.4767 23.1979 15.5404 23.5232 15.5471 23.815C15.48 23.9492 15.3659 24.0934 15.205 24.2476C15.0474 24.4019 14.8562 24.5445 14.6315 24.6753C14.0747 25.004 13.4358 25.1683 12.7147 25.1683C11.6817 25.1683 10.8683 24.8681 10.2747 24.2678C9.66092 23.6607 9.354 22.8205 9.354 21.7473C9.354 20.6707 9.68941 19.8255 10.3602 19.2117C10.6554 18.9367 10.9991 18.7304 11.3916 18.5929C11.7839 18.452 12.1965 18.3816 12.6291 18.3816C13.4743 18.3816 14.1669 18.5862 14.7069 18.9954C15.2469 19.4046 15.5169 19.9093 15.5169 20.5096C15.5169 20.9625 15.3777 21.2979 15.0993 21.5159C14.8209 21.7305 14.4436 21.8378 13.9674 21.8378C13.7058 21.8378 13.4425 21.7741 13.1775 21.6467C12.9125 21.5159 12.7549 21.3934 12.7046 21.2794C12.7046 21.0043 12.7096 20.788 12.7197 20.6304C12.713 20.627 12.7012 20.6254 12.6845 20.6254H12.6492C12.599 20.6254 12.5587 20.6405 12.5285 20.6707C12.5017 20.6975 12.4765 20.7562 12.4531 20.8467C12.4329 20.9373 12.4229 21.1838 12.4229 21.5863C12.4229 22.5489 12.5034 23.0301 12.6644 23.0301ZM18.5908 23.2012C18.7015 23.1811 18.7568 23.1258 18.7568 23.0352C18.7568 22.9413 18.7266 22.8373 18.6662 22.7233C18.6092 22.6059 18.5237 22.4952 18.4097 22.3912C18.1111 22.1229 17.707 21.9888 17.1972 21.9888C16.9457 21.9888 16.7109 22.0307 16.4929 22.1145C16.2615 21.9972 16.077 21.811 15.9395 21.5561C15.802 21.3012 15.7332 21.0262 15.7332 20.7311C15.7332 19.9596 16.0552 19.3643 16.6991 18.9451C17.2525 18.5862 17.9351 18.4067 18.7468 18.4067C19.3504 18.4067 19.8585 18.4721 20.2711 18.6029C20.6836 18.7304 21.0207 18.8947 21.2823 19.096C21.3595 19.3173 21.398 19.5471 21.398 19.7852C21.398 20.0233 21.3662 20.2397 21.3024 20.4342C21.2387 20.6287 21.1465 20.7847 21.0257 20.9021C20.9117 20.8182 20.7055 20.7327 20.4069 20.6455C20.1084 20.5583 19.8368 20.5147 19.5919 20.5147C19.3471 20.5147 19.1828 20.5298 19.0989 20.56C19.0184 20.5902 18.9782 20.6371 18.9782 20.7008C18.9782 20.7311 18.9832 20.7595 18.9932 20.7863C19.1107 20.7562 19.2616 20.7411 19.4461 20.7411C20.1001 20.7411 20.6333 20.8954 21.0458 21.2039C21.5322 21.5729 21.7754 22.1262 21.7754 22.8641C21.7754 23.5148 21.5121 24.0548 20.9855 24.4841C20.4153 24.9436 19.6489 25.1733 18.6864 25.1733C18.1564 25.1733 17.697 25.133 17.3079 25.0526C16.9188 24.9754 16.5398 24.8379 16.1709 24.64C15.9194 24.2745 15.7936 23.9039 15.7936 23.5282C15.7936 23.1492 15.9227 22.8356 16.181 22.5874C16.4392 22.3393 16.7562 22.2152 17.1318 22.2152C17.5108 22.2152 17.8194 22.2923 18.0575 22.4466C18.299 22.6008 18.4768 22.8524 18.5908 23.2012ZM24.6581 23.2012C24.7688 23.1811 24.8241 23.1258 24.8241 23.0352C24.8241 22.9413 24.7939 22.8373 24.7335 22.7233C24.6765 22.6059 24.591 22.4952 24.4769 22.3912C24.1784 22.1229 23.7743 21.9888 23.2645 21.9888C23.0129 21.9888 22.7782 22.0307 22.5602 22.1145C22.3288 21.9972 22.1443 21.811 22.0068 21.5561C21.8692 21.3012 21.8005 21.0262 21.8005 20.7311C21.8005 19.9596 22.1225 19.3643 22.7664 18.9451C23.3198 18.5862 24.0024 18.4067 24.814 18.4067C25.4177 18.4067 25.9258 18.4721 26.3384 18.6029C26.7509 18.7304 27.088 18.8947 27.3496 19.096C27.4267 19.3173 27.4653 19.5471 27.4653 19.7852C27.4653 20.0233 27.4335 20.2397 27.3697 20.4342C27.306 20.6287 27.2137 20.7847 27.093 20.9021C26.979 20.8182 26.7727 20.7327 26.4742 20.6455C26.1757 20.5583 25.9041 20.5147 25.6592 20.5147C25.4144 20.5147 25.25 20.5298 25.1662 20.56C25.0857 20.5902 25.0454 20.6371 25.0454 20.7008C25.0454 20.7311 25.0505 20.7595 25.0605 20.7863C25.1779 20.7562 25.3289 20.7411 25.5133 20.7411C26.1673 20.7411 26.7006 20.8954 27.1131 21.2039C27.5995 21.5729 27.8426 22.1262 27.8426 22.8641C27.8426 23.5148 27.5794 24.0548 27.0528 24.4841C26.4826 24.9436 25.7162 25.1733 24.7536 25.1733C24.2237 25.1733 23.7642 25.133 23.3752 25.0526C22.9861 24.9754 22.6071 24.8379 22.2382 24.64C21.9867 24.2745 21.8609 23.9039 21.8609 23.5282C21.8609 23.1492 21.99 22.8356 22.2483 22.5874C22.5065 22.3393 22.8235 22.2152 23.1991 22.2152C23.5781 22.2152 23.8867 22.2923 24.1248 22.4466C24.3663 22.6008 24.544 22.8524 24.6581 23.2012Z" fill="#222222"/>
  </g>
  <defs>
    <clipPath id="clip0_110_95">
      <rect width="40" height="30.2703" fill="white"/>
    </clipPath>
  </defs>
</svg>