<svg width="169" height="42" viewBox="0 0 169 42" fill="none" xmlns="http://www.w3.org/2000/svg">
<path d="M168 12.698C168 27.9789 151.681 41.1981 120.5 41.1981C89.3185 41.1981 0 45.9789 0 30.698C0 15.4171 16.8185 0.19803 48 0.19803C79.1815 0.19803 168 -2.58293 168 12.698Z" fill="#245F4C"/>
<path d="M36.6719 23.1562C36.8438 23.125 36.9297 23.0391 36.9297 22.8984C36.9297 22.7526 36.8828 22.5911 36.7891 22.4141C36.7005 22.2318 36.5677 22.0599 36.3906 21.8984C35.9271 21.4818 35.2995 21.2734 34.5078 21.2734C34.1172 21.2734 33.7526 21.3385 33.4141 21.4688C33.0547 21.2865 32.7682 20.9974 32.5547 20.6016C32.3411 20.2057 32.2344 19.7786 32.2344 19.3203C32.2344 18.1224 32.7344 17.1979 33.7344 16.5469C34.5938 15.9896 35.6536 15.7109 36.9141 15.7109C37.8516 15.7109 38.6406 15.8125 39.2812 16.0156C39.9219 16.2135 40.4453 16.4688 40.8516 16.7812C40.9714 17.125 41.0312 17.4818 41.0312 17.8516C41.0312 18.2214 40.9818 18.5573 40.8828 18.8594C40.7839 19.1615 40.6406 19.4036 40.4531 19.5859C40.276 19.4557 39.9557 19.3229 39.4922 19.1875C39.0286 19.0521 38.6068 18.9844 38.2266 18.9844C37.8464 18.9844 37.5911 19.0078 37.4609 19.0547C37.3359 19.1016 37.2734 19.1745 37.2734 19.2734C37.2734 19.3203 37.2812 19.3646 37.2969 19.4062C37.4792 19.3594 37.7135 19.3359 38 19.3359C39.0156 19.3359 39.8438 19.5755 40.4844 20.0547C41.2396 20.6276 41.6172 21.487 41.6172 22.6328C41.6172 23.6432 41.2083 24.4818 40.3906 25.1484C39.5052 25.862 38.3151 26.2188 36.8203 26.2188C35.9974 26.2188 35.2839 26.1562 34.6797 26.0312C34.0755 25.9115 33.487 25.6979 32.9141 25.3906C32.5234 24.8229 32.3281 24.2474 32.3281 23.6641C32.3281 23.0755 32.5286 22.5885 32.9297 22.2031C33.3307 21.8177 33.8229 21.625 34.4062 21.625C34.9948 21.625 35.474 21.7448 35.8438 21.9844C36.2188 22.224 36.4948 22.6146 36.6719 23.1562ZM42.4062 21.0625H42.8906C43.151 21.0625 43.2812 20.9766 43.2812 20.8047C43.2812 20.7839 43.276 20.7526 43.2656 20.7109H41.5156C41.401 20.3464 41.3438 19.9401 41.3438 19.4922C41.3438 19.0391 41.3776 18.6719 41.4453 18.3906C41.7422 18.2031 42.151 17.9167 42.6719 17.5312C42.8177 17.1771 43.0078 16.6146 43.2422 15.8438C43.2734 15.7396 43.3099 15.638 43.3516 15.5391C43.7578 15.4349 44.2214 15.3828 44.7422 15.3828C45.263 15.3828 45.776 15.4375 46.2812 15.5469V17.4609H47.6328C47.9349 17.9193 48.0859 18.4583 48.0859 19.0781C48.0859 19.3594 48.0469 19.6484 47.9688 19.9453C47.8906 20.2422 47.7786 20.4948 47.6328 20.7031H46.5156V21.8828C46.5156 22.5495 46.7943 22.8828 47.3516 22.8828H47.6875C47.7969 23.2786 47.8516 23.6224 47.8516 23.9141C47.8516 24.6328 47.625 25.1849 47.1719 25.5703C46.724 25.9505 46.0703 26.1406 45.2109 26.1406C44.3568 26.1406 43.6745 25.9036 43.1641 25.4297C42.6589 24.9505 42.4062 24.2474 42.4062 23.3203V21.0625ZM56.1797 22.1328C56.1797 22.5078 56.2214 22.8099 56.3047 23.0391C56.388 23.2682 56.5339 23.4479 56.7422 23.5781C56.7474 23.6042 56.75 23.6536 56.75 23.7266V23.8672C56.75 24.6068 56.526 25.1823 56.0781 25.5938C55.6823 25.9583 55.1927 26.1406 54.6094 26.1406C54.2135 26.1406 53.8516 26.0469 53.5234 25.8594C53.1953 25.6719 52.9609 25.401 52.8203 25.0469C52.6432 25.0469 52.5547 25.1328 52.5547 25.3047C52.5547 25.4505 52.6458 25.6146 52.8281 25.7969C52.4896 26.026 51.9792 26.1406 51.2969 26.1406C50.3333 26.1406 49.5625 25.8802 48.9844 25.3594C48.4115 24.8333 48.125 24.1016 48.125 23.1641C48.125 22.2214 48.4297 21.4922 49.0391 20.9766C49.5964 20.513 50.3177 20.2812 51.2031 20.2812C51.5052 20.2812 51.7969 20.3021 52.0781 20.3438C52.2656 20.3802 52.3672 20.401 52.3828 20.4062C52.3984 20.3542 52.4062 20.3099 52.4062 20.2734C52.4062 20.138 52.2917 20.0469 52.0625 20C51.8333 19.9531 51.5339 19.9297 51.1641 19.9297C50.3776 19.9297 49.7057 20.0885 49.1484 20.4062C48.8932 19.974 48.7656 19.4271 48.7656 18.7656C48.7656 18.3906 48.8125 18.112 48.9062 17.9297C49.2812 17.7578 49.7578 17.6068 50.3359 17.4766C50.9141 17.3411 51.5234 17.2734 52.1641 17.2734C53.487 17.2734 54.487 17.5625 55.1641 18.1406C55.8411 18.7188 56.1797 19.5391 56.1797 20.6016V22.1328ZM52.125 22.5156C51.9062 22.5156 51.7969 22.6146 51.7969 22.8125C51.7969 23 51.9245 23.0938 52.1797 23.0938C52.3568 23.0938 52.487 23.0521 52.5703 22.9688C52.6536 22.8802 52.6953 22.7292 52.6953 22.5156C52.6953 22.5156 52.5052 22.5156 52.125 22.5156ZM59.2891 26.1016C58.6693 26.1016 58.1745 25.9896 57.8047 25.7656C57.3932 25.5312 57.1875 25.1849 57.1875 24.7266V20.7031C56.8802 20.2708 56.7266 19.7396 56.7266 19.1094C56.7266 18.474 56.8802 17.9245 57.1875 17.4609H58.3828C58.9974 17.4609 59.4375 17.6589 59.7031 18.0547C59.5729 18.2005 59.4583 18.3854 59.3594 18.6094C59.2604 18.8333 59.2109 18.9948 59.2109 19.0938C59.2109 19.1875 59.2344 19.2578 59.2812 19.3047C59.3333 19.3516 59.4062 19.375 59.5 19.375C59.6823 18.651 60.0286 18.1198 60.5391 17.7812C60.9609 17.4948 61.4818 17.3516 62.1016 17.3516C62.5495 17.3516 62.9557 17.4401 63.3203 17.6172C63.5443 17.7318 63.8073 17.9245 64.1094 18.1953C64.375 17.6224 64.6354 17 64.8906 16.3281C64.9531 16.1667 65.013 16.0156 65.0703 15.875C65.1276 15.7292 65.1719 15.6146 65.2031 15.5312C65.5885 15.4323 66.0365 15.3828 66.5469 15.3828C67.0625 15.3828 67.5729 15.4375 68.0781 15.5469V17.4609H69.4297C69.7318 17.9193 69.8828 18.4583 69.8828 19.0781C69.8828 19.3594 69.8438 19.6484 69.7656 19.9453C69.6875 20.2422 69.5755 20.4948 69.4297 20.7031H68.3125V21.8828C68.3125 22.5495 68.5911 22.8828 69.1484 22.8828H69.4844C69.5938 23.2786 69.6484 23.6224 69.6484 23.9141C69.6484 24.6328 69.4219 25.1849 68.9688 25.5703C68.5208 25.9505 67.8672 26.1406 67.0078 26.1406C66.1536 26.1406 65.4714 25.9036 64.9609 25.4297C64.4557 24.9505 64.2031 24.2474 64.2031 23.3203V20.3906C64.2031 20.1615 64.1302 20.0469 63.9844 20.0469C63.9271 20.0469 63.8698 20.0677 63.8125 20.1094C63.8125 20.4688 63.7786 20.7812 63.7109 21.0469C63.263 21.2448 62.7266 21.3438 62.1016 21.3438C61.7891 21.3438 61.5052 21.3229 61.25 21.2812C61 21.2344 60.8177 21.1927 60.7031 21.1562C60.6615 21.1979 60.6406 21.2578 60.6406 21.3359C60.6406 21.4141 60.6901 21.474 60.7891 21.5156C60.8932 21.5521 61.0651 21.5938 61.3047 21.6406V25.5625C60.737 25.9219 60.0651 26.1016 59.2891 26.1016ZM78.3359 26.2422C76.9818 26.2422 75.901 25.8255 75.0938 24.9922C74.2917 24.1536 73.8906 23.0312 73.8906 21.625C73.8906 20.2188 74.3464 19.1068 75.2578 18.2891C76.0703 17.5599 77.0859 17.1953 78.3047 17.1953C79.388 17.1953 80.2865 17.4635 81 18C81.7135 18.5312 82.0703 19.2552 82.0703 20.1719C82.0703 20.8073 81.8724 21.3255 81.4766 21.7266C81.0859 22.1224 80.5703 22.3203 79.9297 22.3203C79.4089 22.3203 78.974 22.1823 78.625 21.9062C78.2812 21.625 78.0781 21.2604 78.0156 20.8125C77.7865 20.8125 77.6719 20.8958 77.6719 21.0625C77.6719 21.4427 77.8594 21.7917 78.2344 22.1094C78.6667 22.4844 79.2031 22.6719 79.8438 22.6719C80.4896 22.6719 81.0234 22.5339 81.4453 22.2578C81.7057 22.6589 81.8359 23.1458 81.8359 23.7188C81.8359 24.3854 81.5495 24.9557 80.9766 25.4297C80.3203 25.9714 79.4401 26.2422 78.3359 26.2422ZM86.4844 21.6484V23.0156C86.5208 23.0521 86.5807 23.0703 86.6641 23.0703C86.7474 23.0703 86.8073 23.0417 86.8438 22.9844C86.8802 22.9271 86.8984 22.8281 86.8984 22.6875V21.5703C86.8984 21.0703 86.8776 20.7396 86.8359 20.5781C86.7943 20.4115 86.7161 20.3281 86.6016 20.3281C86.5286 20.3281 86.4661 20.3542 86.4141 20.4062C86.4609 20.9219 86.4844 21.3359 86.4844 21.6484ZM83.5625 25.1094C82.7083 24.2865 82.2812 23.1719 82.2812 21.7656C82.2812 20.3542 82.6823 19.2422 83.4844 18.4297C84.2917 17.612 85.349 17.2031 86.6562 17.2031C87.9635 17.2031 89.0208 17.6276 89.8281 18.4766C90.6302 19.3255 91.0312 20.4323 91.0312 21.7969C91.0312 23.1562 90.6432 24.237 89.8672 25.0391C89.0964 25.8411 88.0469 26.2422 86.7188 26.2422C85.3906 26.2422 84.3385 25.8646 83.5625 25.1094ZM95.5469 21.6484V23.0156C95.5833 23.0521 95.6432 23.0703 95.7266 23.0703C95.8099 23.0703 95.8698 23.0417 95.9062 22.9844C95.9427 22.9271 95.9609 22.8281 95.9609 22.6875V21.5703C95.9609 21.0703 95.9401 20.7396 95.8984 20.5781C95.8568 20.4115 95.7786 20.3281 95.6641 20.3281C95.5911 20.3281 95.5286 20.3542 95.4766 20.4062C95.5234 20.9219 95.5469 21.3359 95.5469 21.6484ZM92.625 25.1094C91.7708 24.2865 91.3438 23.1719 91.3438 21.7656C91.3438 20.3542 91.7448 19.2422 92.5469 18.4297C93.3542 17.612 94.4115 17.2031 95.7188 17.2031C97.026 17.2031 98.0833 17.6276 98.8906 18.4766C99.6927 19.3255 100.094 20.4323 100.094 21.7969C100.094 23.1562 99.7057 24.237 98.9297 25.0391C98.1589 25.8411 97.1094 26.2422 95.7812 26.2422C94.4531 26.2422 93.401 25.8646 92.625 25.1094ZM104.422 23.0625L104.047 23.2266C104.047 23.5755 104.115 23.9479 104.25 24.3438C104.365 24.7188 104.523 25.0521 104.727 25.3438C104.211 25.875 103.495 26.1406 102.578 26.1406C102.052 26.1406 101.596 26.0026 101.211 25.7266C100.763 25.4141 100.539 25 100.539 24.4844V15.3672C100.789 15.2214 101.089 15.1016 101.438 15.0078C101.792 14.9141 102.148 14.8672 102.508 14.8672C103.107 14.8672 103.602 14.9844 103.992 15.2188C104.435 15.4948 104.656 15.8906 104.656 16.4062V17.2344C104.656 17.9271 104.534 18.6042 104.289 19.2656C104.242 19.3333 104.159 19.4323 104.039 19.5625C103.919 19.6875 103.823 19.8021 103.75 19.9062C103.682 20.0104 103.648 20.1016 103.648 20.1797C103.648 20.2526 103.711 20.3203 103.836 20.3828C104.242 20.0026 104.56 19.5885 104.789 19.1406C105.023 18.6927 105.237 18.099 105.43 17.3594C105.497 17.349 105.576 17.3359 105.664 17.3203C105.753 17.3047 105.898 17.2812 106.102 17.25C106.31 17.2135 106.456 17.1953 106.539 17.1953C107.341 17.1953 107.966 17.3802 108.414 17.75C108.862 18.1146 109.086 18.6172 109.086 19.2578C109.086 19.8984 108.883 20.4479 108.477 20.9062C108.102 21.3177 107.615 21.6276 107.016 21.8359C107.495 22.1172 108.099 22.3177 108.828 22.4375C109.109 22.9479 109.25 23.4922 109.25 24.0703C109.25 24.6432 109.068 25.1224 108.703 25.5078C108.297 25.9297 107.734 26.1406 107.016 26.1406C106.302 26.1406 105.714 25.8672 105.25 25.3203C104.792 24.7682 104.516 24.0156 104.422 23.0625ZM113.531 18.9688V22.0625C113.531 22.8385 113.719 23.3438 114.094 23.5781C114.099 23.6042 114.102 23.6536 114.102 23.7266V23.8672C114.102 24.6328 113.893 25.2083 113.477 25.5938C113.091 25.9583 112.576 26.1406 111.93 26.1406C111.289 26.1406 110.76 25.9583 110.344 25.5938C109.818 25.1302 109.555 24.4531 109.555 23.5625V18.4844C109.648 18.4167 109.75 18.362 109.859 18.3203C109.969 18.2786 110.083 18.2266 110.203 18.1641C109.979 18.0495 109.776 17.8516 109.594 17.5703C109.411 17.2839 109.32 16.9505 109.32 16.5703C109.32 15.9141 109.536 15.3776 109.969 14.9609C110.401 14.5443 110.93 14.3359 111.555 14.3359C112.185 14.3359 112.711 14.5495 113.133 14.9766C113.56 15.3984 113.773 15.9297 113.773 16.5703C113.773 17.0859 113.612 17.5391 113.289 17.9297C112.966 18.3151 112.573 18.5573 112.109 18.6562C112.109 18.8542 112.185 18.9531 112.336 18.9531C112.602 18.9531 112.872 18.849 113.148 18.6406C113.357 18.8021 113.484 18.9115 113.531 18.9688ZM122.719 22.1328C122.719 22.5078 122.76 22.8099 122.844 23.0391C122.927 23.2682 123.073 23.4479 123.281 23.5781C123.286 23.6042 123.289 23.6536 123.289 23.7266V23.8672C123.289 24.5859 123.081 25.1458 122.664 25.5469C122.253 25.9427 121.719 26.1406 121.062 26.1406C120.411 26.1406 119.883 25.9557 119.477 25.5859C119.003 25.1641 118.766 24.5234 118.766 23.6641C118.766 23.2995 118.781 22.9792 118.812 22.7031C118.849 22.4219 118.872 22.2214 118.883 22.1016C118.898 21.9818 118.914 21.8698 118.93 21.7656C118.945 21.6615 118.953 21.5078 118.953 21.3047C118.953 21.1016 118.924 20.9557 118.867 20.8672C118.815 20.7786 118.74 20.7344 118.641 20.7344C118.547 20.7344 118.464 20.7552 118.391 20.7969L118.492 22.0703C118.398 22.5964 118.352 23.1536 118.352 23.7422C118.352 24.3307 118.484 24.8672 118.75 25.3516C118.24 25.8776 117.523 26.1406 116.602 26.1406C116.076 26.1406 115.62 26.0026 115.234 25.7266C114.786 25.4141 114.562 25 114.562 24.4844V20.7031C114.255 20.2708 114.102 19.7396 114.102 19.1094C114.102 18.474 114.255 17.9245 114.562 17.4609H115.953C116.323 17.4609 116.638 17.599 116.898 17.875C116.669 18.0885 116.555 18.2656 116.555 18.4062C116.555 18.5677 116.646 18.6484 116.828 18.6484C117.057 18.2526 117.406 17.9245 117.875 17.6641C118.349 17.4036 118.885 17.2734 119.484 17.2734C120.385 17.2734 121.117 17.4948 121.68 17.9375C122.388 18.4948 122.742 19.3594 122.742 20.5312L122.719 22.1328ZM127.945 20.3984C127.945 20.2109 127.875 20.1172 127.734 20.1172C127.604 20.1172 127.539 20.1953 127.539 20.3516V21.1562C127.581 21.1927 127.643 21.2109 127.727 21.2109C127.81 21.2109 127.867 21.1797 127.898 21.1172C127.93 21.0547 127.945 20.9401 127.945 20.7734V20.3984ZM128.234 23.5625C127.901 23.5625 127.617 23.5391 127.383 23.4922C127.367 23.5391 127.359 23.5833 127.359 23.625C127.359 23.7396 127.44 23.8177 127.602 23.8594C127.768 23.8958 127.979 23.9141 128.234 23.9141C129.047 23.9141 129.74 23.7943 130.312 23.5547C130.875 23.7005 131.312 24.0182 131.625 24.5078C131.88 24.9089 132.008 25.3802 132.008 25.9219C132.008 26.8854 131.599 27.6354 130.781 28.1719C129.964 28.7083 128.909 28.9766 127.617 28.9766C126.331 28.9766 125.336 28.7474 124.633 28.2891C123.982 27.8724 123.656 27.3307 123.656 26.6641C123.656 26.4089 123.716 26.1641 123.836 25.9297C123.956 25.6901 124.094 25.526 124.25 25.4375C124.51 25.6562 124.893 25.8333 125.398 25.9688C125.909 26.1042 126.432 26.1719 126.969 26.1719C127.505 26.1719 127.849 26.151 128 26.1094C128.156 26.0677 128.234 25.9948 128.234 25.8906C128.234 25.8385 128.219 25.7865 128.188 25.7344C127.927 25.7917 127.602 25.8203 127.211 25.8203C126.206 25.8203 125.417 25.6771 124.844 25.3906C124.146 25.0469 123.797 24.5286 123.797 23.8359C123.797 23.5651 123.852 23.3151 123.961 23.0859C124.07 22.8516 124.232 22.6771 124.445 22.5625C124.159 22.3854 123.914 22.1172 123.711 21.7578C123.513 21.3984 123.414 20.9557 123.414 20.4297C123.414 19.4297 123.789 18.6406 124.539 18.0625C125.289 17.4844 126.263 17.1953 127.461 17.1953C128.039 17.1953 128.596 17.2917 129.133 17.4844V16.9375C129.44 16.8177 129.846 16.7578 130.352 16.7578C130.862 16.7578 131.25 16.8438 131.516 17.0156C131.839 17.224 132 17.5911 132 18.1172C132 18.4089 131.969 18.6432 131.906 18.8203C131.849 18.9974 131.763 19.1823 131.648 19.375C131.784 19.7188 131.852 20.1458 131.852 20.6562C131.852 21.5781 131.523 22.2943 130.867 22.8047C130.216 23.3099 129.339 23.5625 128.234 23.5625ZM135.688 21.4297C135.417 21.3099 135.177 21.25 134.969 21.25C134.76 21.25 134.656 21.3464 134.656 21.5391V21.5703C135.25 21.612 135.753 21.8516 136.164 22.2891C136.576 22.7214 136.781 23.2422 136.781 23.8516C136.781 24.4557 136.56 24.9792 136.117 25.4219C135.669 25.8594 135.135 26.0781 134.516 26.0781C133.896 26.0781 133.365 25.8594 132.922 25.4219C132.484 24.9792 132.266 24.4505 132.266 23.8359C132.266 23.4193 132.37 23.0365 132.578 22.6875C132.792 22.3333 133.073 22.0547 133.422 21.8516C133.109 21.3099 132.859 20.6875 132.672 19.9844C132.484 19.2812 132.391 18.5521 132.391 17.7969V15.25C132.609 15.0938 132.893 14.9661 133.242 14.8672C133.591 14.7682 133.945 14.7188 134.305 14.7188C135.086 14.7188 135.648 14.9167 135.992 15.3125C136.341 15.7031 136.516 16.3646 136.516 17.2969V17.7969C136.516 19 136.24 20.2109 135.688 21.4297Z" fill="#F5BC63"/>
</svg>
