<svg width="187" height="73" viewBox="0 0 187 73" fill="none" xmlns="http://www.w3.org/2000/svg">
<path d="M182 37.2C182 60.3761 147.692 62 100.4 62C53.1082 62 2.80005 60.3761 2.80005 37.2C2.80005 14.0239 53.1082 0.799988 100.4 0.799988C147.692 0.799988 182 14.0239 182 37.2Z" fill="#245F4C"/>
<path d="M43.8448 32.1697V40.4995C43.4815 40.8155 42.9957 41.0801 42.3874 41.2934C41.7792 41.5066 41.0406 41.6133 40.1717 41.6133C39.3027 41.6133 38.5642 41.4198 37.9559 41.0327C37.2687 40.614 36.9251 40.0216 36.9251 39.2553V31.6246H34.1642C33.5955 30.811 33.3111 29.9223 33.3111 28.9586C33.3111 28.303 33.4138 27.7342 33.6192 27.2524C33.8325 26.7626 34.0932 26.3834 34.4012 26.1149H46.653C46.8821 26.4703 47.0717 26.9008 47.2218 27.4064C47.3719 27.9119 47.4469 28.4136 47.4469 28.9112C47.4469 29.8433 47.2415 30.5306 46.8308 30.9729C46.42 31.4074 45.8671 31.6246 45.1719 31.6246H41.7002C41.6765 31.6799 41.6646 31.7392 41.6646 31.8024C41.6646 31.9445 41.7476 32.0393 41.9135 32.0867C42.0872 32.142 42.4585 32.1697 43.0273 32.1697H43.8448ZM50.6817 41.554C49.7417 41.554 48.9912 41.3842 48.4304 41.0445C47.8063 40.6891 47.4943 40.1638 47.4943 39.4686V33.3664C47.0283 32.7108 46.7952 31.905 46.7952 30.9492C46.7952 29.9855 47.0283 29.1521 47.4943 28.4491H49.3072C50.2393 28.4491 50.9068 28.7493 51.3097 29.3496C51.1122 29.5708 50.9384 29.8512 50.7883 30.1909C50.6382 30.5306 50.5632 30.7754 50.5632 30.9255C50.5632 31.0677 50.5987 31.1744 50.6698 31.2455C50.7488 31.3165 50.8594 31.3521 51.0016 31.3521C51.2781 30.2541 51.8034 29.4484 52.5775 28.9349C53.2174 28.5004 54.0073 28.2832 54.9473 28.2832C56.1164 28.2832 57.0327 28.532 57.6963 29.0297C57.9333 29.6616 58.0517 30.4358 58.0517 31.3521C58.0517 32.2605 57.8701 33.086 57.5067 33.8285C57.2381 33.9707 56.8668 34.0932 56.3929 34.1958C55.9189 34.2906 55.441 34.338 54.9592 34.338C54.4773 34.338 54.0428 34.3064 53.6558 34.2432C53.2766 34.1721 53.0001 34.109 52.8264 34.0537C52.7632 34.1168 52.7316 34.2077 52.7316 34.3262C52.7316 34.4447 52.8066 34.5355 52.9567 34.5987C53.1147 34.654 53.3754 34.7172 53.7387 34.7883V40.7365C52.8777 41.2815 51.8587 41.554 50.6817 41.554ZM64.9597 35.4163V35.6888C64.9597 35.8152 64.9636 35.906 64.9715 35.9613C65.0505 36.0008 65.1374 36.0206 65.2322 36.0206C65.4613 36.0206 65.5758 35.8468 65.5758 35.4992C65.5758 34.338 65.639 33.1334 65.7654 31.8853C65.8997 30.6293 66.0419 29.6616 66.192 28.9823C66.8318 28.5162 67.6849 28.2832 68.7514 28.2832C69.8178 28.2832 70.6393 28.4925 71.2159 28.9112C71.8005 29.322 72.0928 29.8196 72.0928 30.4042C72.0928 30.6491 71.9466 31.6602 71.6543 33.4375C71.3305 35.2465 70.9158 37.1502 70.4102 39.1487C70.3075 39.5516 70.1219 40.1164 69.8533 40.8431C69.5926 41.5698 69.3122 42.1741 69.012 42.656C68.072 44.149 66.9108 45.0732 65.5284 45.4287C64.8807 45.5945 64.229 45.6775 63.5734 45.6775C62.3016 45.6775 61.3181 45.3615 60.623 44.7296C59.9831 44.1608 59.6632 43.4538 59.6632 42.6086C59.6632 41.7713 59.912 40.9813 60.4097 40.2388C60.5282 40.2072 60.7454 40.1914 61.0614 40.1914C61.3774 40.1914 61.7723 40.2309 62.2463 40.3099C63.5576 40.5548 64.2251 40.6772 64.2487 40.6772C64.304 40.6851 64.3633 40.697 64.4265 40.7128C64.4976 40.7207 64.5884 40.7246 64.699 40.7246C64.8096 40.7246 64.9044 40.693 64.9834 40.6298C65.0624 40.5666 65.1019 40.4402 65.1019 40.2507L62.3055 39.7175C61.6183 39.4331 61.0219 38.8367 60.5163 37.9283C59.8923 36.8066 59.4697 35.2859 59.2485 33.3664C58.7271 32.6871 58.4665 31.8734 58.4665 30.9255C58.4665 29.9776 58.7034 29.1521 59.1774 28.4491H62.2226C63.2416 28.4491 64.0039 28.7414 64.5094 29.3259C64.8807 29.7604 65.1177 30.3963 65.2204 31.2336C65.0466 32.6081 64.9597 34.0023 64.9597 35.4163ZM83.918 30.7359V35.4281C83.918 36.6051 84.2024 37.3714 84.7711 37.7268C84.779 37.7663 84.783 37.8414 84.783 37.952V38.1652C84.783 39.3264 84.467 40.1993 83.8351 40.7839C83.2505 41.3368 82.4685 41.6133 81.489 41.6133C80.5174 41.6133 79.7156 41.3368 79.0836 40.7839C78.2858 40.0808 77.8869 39.0539 77.8869 37.7031V30.0013C78.0291 29.8986 78.1831 29.8157 78.349 29.7525C78.5149 29.6893 78.6887 29.6103 78.8704 29.5155C78.5307 29.3417 78.2226 29.0415 77.9461 28.615C77.6697 28.1805 77.5314 27.675 77.5314 27.0983C77.5314 26.103 77.8593 25.2894 78.5149 24.6574C79.1705 24.0255 79.9723 23.7095 80.9202 23.7095C81.876 23.7095 82.6739 24.0334 83.3137 24.6811C83.9615 25.321 84.2853 26.1267 84.2853 27.0983C84.2853 27.8803 84.0405 28.5676 83.5507 29.16C83.0609 29.7446 82.4645 30.1119 81.7615 30.262C81.7615 30.5622 81.876 30.7122 82.1051 30.7122C82.508 30.7122 82.9188 30.5543 83.3374 30.2383C83.6534 30.4832 83.8469 30.6491 83.918 30.7359ZM86.3352 33.9115H87.0698C87.4648 33.9115 87.6623 33.7811 87.6623 33.5205C87.6623 33.4889 87.6544 33.4415 87.6386 33.3783H84.9844C84.8106 32.8253 84.7237 32.2092 84.7237 31.5298C84.7237 30.8426 84.7751 30.2857 84.8778 29.8591C85.328 29.5747 85.9481 29.1403 86.7381 28.5557C86.9593 28.0186 87.2476 27.1655 87.603 25.9964C87.6504 25.8384 87.7057 25.6843 87.7689 25.5343C88.3851 25.3763 89.0881 25.2973 89.878 25.2973C90.668 25.2973 91.4461 25.3802 92.2123 25.5461V28.4491H94.2622C94.7203 29.1442 94.9494 29.9618 94.9494 30.9018C94.9494 31.3284 94.8902 31.7668 94.7717 32.2171C94.6532 32.6673 94.4833 33.0504 94.2622 33.3664H92.5678V35.1556C92.5678 36.1667 92.9904 36.6723 93.8356 36.6723H94.3451C94.511 37.2726 94.5939 37.794 94.5939 38.2363C94.5939 39.3264 94.2503 40.1638 93.5631 40.7483C92.8837 41.325 91.8924 41.6133 90.589 41.6133C89.2935 41.6133 88.2587 41.2539 87.4846 40.535C86.7183 39.8083 86.3352 38.7419 86.3352 37.3358V33.9115ZM113.706 35.5348C113.706 36.1035 113.769 36.5617 113.896 36.9093C114.022 37.2568 114.243 37.5293 114.559 37.7268C114.567 37.7663 114.571 37.8414 114.571 37.952V38.1652C114.571 39.2553 114.255 40.1045 113.623 40.7128C112.999 41.3131 112.19 41.6133 111.194 41.6133C110.207 41.6133 109.405 41.3329 108.789 40.772C108.07 40.1322 107.711 39.1606 107.711 37.8572C107.711 37.3042 107.734 36.8184 107.782 36.3997C107.837 35.9732 107.873 35.6691 107.888 35.4874C107.912 35.3057 107.936 35.1359 107.96 34.9779C107.983 34.8199 107.995 34.5869 107.995 34.2788C107.995 33.9707 107.952 33.7495 107.865 33.6152C107.786 33.481 107.671 33.4138 107.521 33.4138C107.379 33.4138 107.253 33.4454 107.142 33.5086L107.296 35.44C107.154 36.2378 107.083 37.083 107.083 37.9757C107.083 38.8683 107.284 39.6819 107.687 40.4165C106.913 41.2144 105.827 41.6133 104.429 41.6133C103.631 41.6133 102.94 41.404 102.355 40.9853C101.676 40.5113 101.336 39.8833 101.336 39.1013V33.3664C100.87 32.7108 100.637 31.905 100.637 30.9492C100.637 29.9855 100.87 29.1521 101.336 28.4491H103.445C104.006 28.4491 104.484 28.6584 104.879 29.0771C104.531 29.401 104.357 29.6695 104.357 29.8828C104.357 30.1277 104.496 30.2501 104.772 30.2501C105.12 29.6498 105.649 29.1521 106.36 28.7572C107.079 28.3622 107.892 28.1647 108.801 28.1647C110.167 28.1647 111.277 28.5004 112.13 29.1719C113.205 30.0171 113.742 31.3284 113.742 33.1057L113.706 35.5348ZM121.1 34.8001V36.8737C121.155 36.929 121.246 36.9566 121.373 36.9566C121.499 36.9566 121.59 36.9132 121.645 36.8263C121.7 36.7394 121.728 36.5893 121.728 36.3761V34.6816C121.728 33.9233 121.696 33.4217 121.633 33.1768C121.57 32.9241 121.452 32.7977 121.278 32.7977C121.167 32.7977 121.072 32.8372 120.993 32.9162C121.064 33.6982 121.1 34.3262 121.1 34.8001ZM116.669 40.0492C115.373 38.8011 114.725 37.1107 114.725 34.9779C114.725 32.8372 115.334 31.1507 116.55 29.9184C117.774 28.6782 119.378 28.0581 121.361 28.0581C123.343 28.0581 124.947 28.7019 126.171 29.9895C127.388 31.277 127.996 32.9557 127.996 35.0253C127.996 37.087 127.408 38.7261 126.231 39.9426C125.062 41.1591 123.47 41.7673 121.456 41.7673C119.441 41.7673 117.846 41.1946 116.669 40.0492ZM134.169 34.8001C134.169 35.2583 134.189 35.5664 134.229 35.7244C134.276 35.9771 134.406 36.1035 134.62 36.1035H134.726C134.75 36.1035 134.786 36.0956 134.833 36.0798C134.809 35.8665 134.797 35.5585 134.797 35.1556C134.797 34.7527 134.817 34.0932 134.857 33.1768C134.896 32.2605 134.916 30.9255 134.916 29.1719C135.698 28.6347 136.595 28.3662 137.606 28.3662C138.396 28.3662 139.047 28.5202 139.561 28.8283C140.082 29.1363 140.442 29.5747 140.639 30.1435C140.639 30.4121 140.611 30.9611 140.556 31.7905C140.39 33.7732 140.149 35.2741 139.833 36.2931C139.92 36.3405 140.011 36.3642 140.106 36.3642C140.208 36.3642 140.287 36.3326 140.343 36.2694C140.572 36.0087 140.789 35.0687 140.994 33.4494C141.16 31.8695 141.263 30.657 141.303 29.8117C141.31 29.5116 141.322 29.2825 141.338 29.1245C141.638 28.8954 142.037 28.7137 142.535 28.5794C143.04 28.4372 143.566 28.3662 144.111 28.3662C145.035 28.3662 145.789 28.6229 146.374 29.1363C146.958 29.6419 147.251 30.3212 147.251 31.1744C147.251 31.8063 147.124 32.6713 146.872 33.7693C146.619 34.8673 146.275 36.0364 145.841 37.2766C145.406 38.5089 145.055 39.3699 144.786 39.8596C144.407 40.539 143.953 41.0011 143.423 41.246C142.902 41.4909 142.092 41.6133 140.994 41.6133C140.663 41.6133 140.232 41.5777 139.703 41.5066C139.174 41.4356 138.81 41.3605 138.613 41.2815C138.447 41.0129 138.249 40.618 138.02 40.0966C137.799 39.5753 137.641 39.1724 137.546 38.888C137.246 38.9354 137.096 39.0658 137.096 39.279C137.096 39.3422 137.147 39.52 137.25 39.8122C137.353 40.0966 137.428 40.2902 137.475 40.3928C137.452 40.4402 137.392 40.5666 137.298 40.772C137.203 40.9695 137.1 41.1433 136.99 41.2934C136.381 41.5066 135.5 41.6133 134.347 41.6133C133.202 41.6133 132.222 41.4514 131.409 41.1275C130.777 40.2586 130.228 39.2198 129.762 38.0112C129.303 36.8026 128.916 35.2543 128.6 33.3664C128.079 32.6871 127.818 31.8695 127.818 30.9137C127.818 29.9579 128.055 29.1284 128.529 28.4254H131.397C132.519 28.4254 133.301 28.69 133.743 29.2193C134.083 29.63 134.252 30.2936 134.252 31.2099L134.169 34.8001ZM152.713 34.4684C152.302 34.2867 151.939 34.1958 151.623 34.1958C151.307 34.1958 151.149 34.342 151.149 34.6343V34.6816C152.05 34.7448 152.812 35.1082 153.436 35.7718C154.06 36.4274 154.372 37.2173 154.372 38.1415C154.372 39.0579 154.036 39.8517 153.365 40.5232C152.685 41.1867 151.876 41.5185 150.936 41.5185C149.996 41.5185 149.19 41.1867 148.519 40.5232C147.855 39.8517 147.523 39.05 147.523 38.1178C147.523 37.4859 147.681 36.9053 147.997 36.3761C148.321 35.8389 148.748 35.4163 149.277 35.1082C148.803 34.2867 148.424 33.3427 148.139 32.2763C147.855 31.2099 147.713 30.104 147.713 28.9586V25.0958C148.045 24.8589 148.475 24.6653 149.004 24.5152C149.534 24.3652 150.071 24.2901 150.616 24.2901C151.801 24.2901 152.654 24.5903 153.175 25.1906C153.704 25.7831 153.969 26.7863 153.969 28.2003V28.9586C153.969 30.7833 153.55 32.6199 152.713 34.4684Z" fill="#F5BC63"/>
</svg>
