<svg width="215" height="55" viewBox="0 0 215 55" fill="none" xmlns="http://www.w3.org/2000/svg">
<path d="M4.18481 27.5C4.18481 14.6233 14.6233 4.18478 27.5 4.18478H186.522C199.399 4.18478 209.837 14.6233 209.837 27.5C209.837 40.3767 199.399 50.8152 186.522 50.8152H27.5C14.6235 50.8152 4.18481 40.3767 4.18481 27.5Z" fill="#222222"/>
<path d="M4.18481 27.5C4.18481 14.6233 14.6233 4.18478 27.5 4.18478H186.522C199.399 4.18478 209.837 14.6233 209.837 27.5C209.837 40.3767 199.399 50.8152 186.522 50.8152H27.5C14.6235 50.8152 4.18481 40.3767 4.18481 27.5Z" stroke="#8E918F" stroke-width="1.19565"/>
<path fill-rule="evenodd" clip-rule="evenodd" d="M39.0262 27.7446C39.0262 26.9815 38.9577 26.2478 38.8306 25.5434H28.6958V29.7059H34.4871C34.2376 31.051 33.4795 32.1907 32.3398 32.9538V35.6538H35.8176C37.8523 33.7804 39.0262 31.0218 39.0262 27.7446Z" fill="#4285F4"/>
<path fill-rule="evenodd" clip-rule="evenodd" d="M28.6956 38.2609C31.6011 38.2609 34.037 37.2973 35.8174 35.6537L32.3396 32.9538C31.376 33.5995 30.1434 33.9809 28.6956 33.9809C25.8929 33.9809 23.5206 32.0881 22.6744 29.5446H19.0793V32.3326C20.85 35.8495 24.4891 38.2609 28.6956 38.2609Z" fill="#34A853"/>
<path fill-rule="evenodd" clip-rule="evenodd" d="M22.6745 29.5446C22.4593 28.8989 22.337 28.2093 22.337 27.5C22.337 26.7907 22.4593 26.1011 22.6745 25.4554V22.6674H19.0794C18.3505 24.1201 17.9348 25.7636 17.9348 27.5C17.9348 29.2365 18.3505 30.8799 19.0794 32.3326L22.6745 29.5446Z" fill="#FBBC05"/>
<path fill-rule="evenodd" clip-rule="evenodd" d="M28.6956 21.019C30.2756 21.019 31.694 21.5619 32.8093 22.6283L35.8956 19.5419C34.0321 17.8054 31.5962 16.7391 28.6956 16.7391C24.4891 16.7391 20.85 19.1505 19.0793 22.6674L22.6744 25.4554C23.5206 22.9119 25.8929 21.019 28.6956 21.019Z" fill="#EA4335"/>
<path d="M66.7277 32.196C66.0184 32.196 65.3837 32.07 64.8237 31.818C64.2637 31.566 63.8204 31.188 63.4937 30.684C63.1764 30.1707 63.0177 29.5313 63.0177 28.766V28.472H64.1797V28.766C64.1797 29.578 64.4177 30.1847 64.8937 30.586C65.3697 30.978 65.981 31.174 66.7277 31.174C67.493 31.174 68.0764 31.0013 68.4777 30.656C68.879 30.3107 69.0797 29.8767 69.0797 29.354C69.0797 28.99 68.9864 28.7007 68.7997 28.486C68.6224 28.2713 68.3704 28.0987 68.0437 27.968C67.717 27.828 67.3344 27.7067 66.8957 27.604L66.1677 27.422C65.5984 27.2727 65.0944 27.0907 64.6557 26.876C64.217 26.6613 63.8717 26.3813 63.6197 26.036C63.377 25.6813 63.2557 25.2287 63.2557 24.678C63.2557 24.1273 63.391 23.6513 63.6617 23.25C63.9417 22.8487 64.329 22.5407 64.8237 22.326C65.3277 22.1113 65.9064 22.004 66.5597 22.004C67.2224 22.004 67.815 22.1207 68.3377 22.354C68.8697 22.578 69.285 22.914 69.5837 23.362C69.8917 23.8007 70.0457 24.356 70.0457 25.028V25.616H68.8837V25.028C68.8837 24.552 68.781 24.1693 68.5757 23.88C68.3797 23.5907 68.1044 23.376 67.7497 23.236C67.4044 23.096 67.0077 23.026 66.5597 23.026C65.9157 23.026 65.3977 23.1707 65.0057 23.46C64.6137 23.74 64.4177 24.1413 64.4177 24.664C64.4177 25.0093 64.5017 25.2893 64.6697 25.504C64.8377 25.7187 65.0757 25.896 65.3837 26.036C65.6917 26.1667 66.0604 26.2833 66.4897 26.386L67.2177 26.568C67.787 26.6893 68.2957 26.8573 68.7437 27.072C69.201 27.2773 69.565 27.562 69.8357 27.926C70.1064 28.2807 70.2417 28.7473 70.2417 29.326C70.2417 29.9047 70.097 30.4087 69.8077 30.838C69.5184 31.2673 69.1077 31.6033 68.5757 31.846C68.053 32.0793 67.437 32.196 66.7277 32.196ZM72.0936 32V25.154H73.1996V32H72.0936ZM72.6536 24.09C72.411 24.09 72.2056 24.0107 72.0376 23.852C71.879 23.6933 71.7996 23.4927 71.7996 23.25C71.7996 22.998 71.879 22.7927 72.0376 22.634C72.2056 22.4753 72.411 22.396 72.6536 22.396C72.8963 22.396 73.097 22.4753 73.2556 22.634C73.4143 22.7927 73.4936 22.998 73.4936 23.25C73.4936 23.4927 73.4143 23.6933 73.2556 23.852C73.097 24.0107 72.8963 24.09 72.6536 24.09ZM75.1893 28.612V28.416C75.1893 27.6973 75.3339 27.0813 75.6233 26.568C75.9126 26.0547 76.3046 25.658 76.7993 25.378C77.2939 25.098 77.8353 24.958 78.4233 24.958C79.1419 24.958 79.6926 25.098 80.0753 25.378C80.4673 25.6487 80.7566 25.952 80.9433 26.288H81.1393V25.154H82.1893V33.596C82.1893 33.9693 82.0866 34.2633 81.8813 34.478C81.6759 34.6927 81.3773 34.8 80.9853 34.8H76.3373V33.82H80.6913C80.9713 33.82 81.1113 33.68 81.1113 33.4V30.796H80.9153C80.8033 31.0013 80.6446 31.202 80.4393 31.398C80.2339 31.594 79.9679 31.7573 79.6413 31.888C79.3146 32.0093 78.9086 32.07 78.4233 32.07C77.8353 32.07 77.2939 31.93 76.7993 31.65C76.3046 31.37 75.9126 30.9733 75.6233 30.46C75.3339 29.9373 75.1893 29.3213 75.1893 28.612ZM78.7173 31.09C79.4266 31.09 80.0006 30.866 80.4393 30.418C80.8873 29.97 81.1113 29.354 81.1113 28.57V28.458C81.1113 27.6647 80.8873 27.0487 80.4393 26.61C80.0006 26.162 79.4266 25.938 78.7173 25.938C78.0173 25.938 77.4386 26.162 76.9813 26.61C76.5333 27.0487 76.3093 27.6647 76.3093 28.458V28.57C76.3093 29.354 76.5333 29.97 76.9813 30.418C77.4386 30.866 78.0173 31.09 78.7173 31.09ZM84.5077 32V25.154H85.5857V26.316H85.7817C85.931 25.9893 86.183 25.6953 86.5377 25.434C86.9017 25.1633 87.4337 25.028 88.1337 25.028C88.647 25.028 89.1044 25.1353 89.5057 25.35C89.9164 25.5647 90.243 25.882 90.4857 26.302C90.7284 26.722 90.8497 27.24 90.8497 27.856V32H89.7437V27.94C89.7437 27.2587 89.571 26.764 89.2257 26.456C88.8897 26.148 88.4324 25.994 87.8537 25.994C87.191 25.994 86.6497 26.2087 86.2297 26.638C85.819 27.0673 85.6137 27.7067 85.6137 28.556V32H84.5077ZM96.6893 32V25.154H97.7953V32H96.6893ZM97.2493 24.09C97.0067 24.09 96.8013 24.0107 96.6333 23.852C96.4747 23.6933 96.3953 23.4927 96.3953 23.25C96.3953 22.998 96.4747 22.7927 96.6333 22.634C96.8013 22.4753 97.0067 22.396 97.2493 22.396C97.492 22.396 97.6927 22.4753 97.8513 22.634C98.01 22.7927 98.0893 22.998 98.0893 23.25C98.0893 23.4927 98.01 23.6933 97.8513 23.852C97.6927 24.0107 97.492 24.09 97.2493 24.09ZM100.121 32V25.154H101.199V26.316H101.395C101.544 25.9893 101.796 25.6953 102.151 25.434C102.515 25.1633 103.047 25.028 103.747 25.028C104.26 25.028 104.718 25.1353 105.119 25.35C105.53 25.5647 105.856 25.882 106.099 26.302C106.342 26.722 106.463 27.24 106.463 27.856V32H105.357V27.94C105.357 27.2587 105.184 26.764 104.839 26.456C104.503 26.148 104.046 25.994 103.467 25.994C102.804 25.994 102.263 26.2087 101.843 26.638C101.432 27.0673 101.227 27.7067 101.227 28.556V32H100.121ZM113.255 32L111.883 25.154H113.003L114.137 31.258H114.333L115.831 25.154H117.665L119.163 31.258H119.359L120.493 25.154H121.613L120.241 32H118.351L116.839 25.896H116.657L115.145 32H113.255ZM123.514 32V25.154H124.62V32H123.514ZM124.074 24.09C123.831 24.09 123.626 24.0107 123.458 23.852C123.299 23.6933 123.22 23.4927 123.22 23.25C123.22 22.998 123.299 22.7927 123.458 22.634C123.626 22.4753 123.831 22.396 124.074 22.396C124.316 22.396 124.517 22.4753 124.676 22.634C124.834 22.7927 124.914 22.998 124.914 23.25C124.914 23.4927 124.834 23.6933 124.676 23.852C124.517 24.0107 124.316 24.09 124.074 24.09ZM129.465 32C129.073 32 128.77 31.8927 128.555 31.678C128.35 31.4633 128.247 31.1693 128.247 30.796V26.12H126.189V25.154H128.247V22.718H129.353V25.154H131.593V26.12H129.353V30.628C129.353 30.908 129.489 31.048 129.759 31.048H131.285V32H129.465ZM133.385 32V22.2H134.491V26.246H134.687C134.78 26.0407 134.92 25.8493 135.107 25.672C135.303 25.4853 135.55 25.3313 135.849 25.21C136.157 25.0887 136.544 25.028 137.011 25.028C137.524 25.028 137.981 25.14 138.383 25.364C138.793 25.5787 139.12 25.896 139.363 26.316C139.605 26.7267 139.727 27.24 139.727 27.856V32H138.621V27.94C138.621 27.2587 138.448 26.764 138.103 26.456C137.767 26.148 137.309 25.994 136.731 25.994C136.068 25.994 135.527 26.2087 135.107 26.638C134.696 27.0673 134.491 27.7067 134.491 28.556V32H133.385ZM148.94 32.196C148.212 32.196 147.568 32.0467 147.008 31.748C146.458 31.44 146.024 30.992 145.706 30.404C145.398 29.816 145.244 29.088 145.244 28.22V25.98C145.244 24.6827 145.59 23.698 146.28 23.026C146.971 22.3447 147.9 22.004 149.066 22.004C150.224 22.004 151.106 22.3213 151.712 22.956C152.319 23.5907 152.622 24.44 152.622 25.504V25.574H151.46V25.476C151.46 25.0093 151.376 24.594 151.208 24.23C151.04 23.866 150.779 23.5813 150.424 23.376C150.07 23.1613 149.617 23.054 149.066 23.054C148.236 23.054 147.587 23.3107 147.12 23.824C146.654 24.328 146.42 25.0373 146.42 25.952V28.248C146.42 29.1627 146.654 29.8767 147.12 30.39C147.587 30.894 148.24 31.146 149.08 31.146C149.902 31.146 150.504 30.9127 150.886 30.446C151.278 29.9793 151.474 29.3587 151.474 28.584V28.346H148.506V27.338H152.622V32H151.558V30.936H151.362C151.26 31.1413 151.115 31.342 150.928 31.538C150.742 31.734 150.49 31.8927 150.172 32.014C149.855 32.1353 149.444 32.196 148.94 32.196ZM157.972 32.196C157.282 32.196 156.67 32.0513 156.138 31.762C155.616 31.4727 155.205 31.0667 154.906 30.544C154.617 30.012 154.472 29.3867 154.472 28.668V28.486C154.472 27.7767 154.617 27.156 154.906 26.624C155.205 26.092 155.616 25.6813 156.138 25.392C156.67 25.1027 157.282 24.958 157.972 24.958C158.663 24.958 159.27 25.1027 159.792 25.392C160.324 25.6813 160.735 26.092 161.024 26.624C161.323 27.156 161.472 27.7767 161.472 28.486V28.668C161.472 29.3867 161.323 30.012 161.024 30.544C160.735 31.0667 160.324 31.4727 159.792 31.762C159.27 32.0513 158.663 32.196 157.972 32.196ZM157.972 31.202C158.7 31.202 159.279 30.9733 159.708 30.516C160.147 30.0493 160.366 29.424 160.366 28.64V28.514C160.366 27.73 160.147 27.1093 159.708 26.652C159.279 26.1853 158.7 25.952 157.972 25.952C157.254 25.952 156.675 26.1853 156.236 26.652C155.798 27.1093 155.578 27.73 155.578 28.514V28.64C155.578 29.424 155.798 30.0493 156.236 30.516C156.675 30.9733 157.254 31.202 157.972 31.202ZM166.627 32.196C165.936 32.196 165.325 32.0513 164.793 31.762C164.27 31.4727 163.859 31.0667 163.561 30.544C163.271 30.012 163.127 29.3867 163.127 28.668V28.486C163.127 27.7767 163.271 27.156 163.561 26.624C163.859 26.092 164.27 25.6813 164.793 25.392C165.325 25.1027 165.936 24.958 166.627 24.958C167.317 24.958 167.924 25.1027 168.447 25.392C168.979 25.6813 169.389 26.092 169.679 26.624C169.977 27.156 170.127 27.7767 170.127 28.486V28.668C170.127 29.3867 169.977 30.012 169.679 30.544C169.389 31.0667 168.979 31.4727 168.447 31.762C167.924 32.0513 167.317 32.196 166.627 32.196ZM166.627 31.202C167.355 31.202 167.933 30.9733 168.363 30.516C168.801 30.0493 169.021 29.424 169.021 28.64V28.514C169.021 27.73 168.801 27.1093 168.363 26.652C167.933 26.1853 167.355 25.952 166.627 25.952C165.908 25.952 165.329 26.1853 164.891 26.652C164.452 27.1093 164.233 27.73 164.233 28.514V28.64C164.233 29.424 164.452 30.0493 164.891 30.516C165.329 30.9733 165.908 31.202 166.627 31.202ZM171.781 28.612V28.416C171.781 27.6973 171.926 27.0813 172.215 26.568C172.504 26.0547 172.896 25.658 173.391 25.378C173.886 25.098 174.427 24.958 175.015 24.958C175.734 24.958 176.284 25.098 176.667 25.378C177.059 25.6487 177.348 25.952 177.535 26.288H177.731V25.154H178.781V33.596C178.781 33.9693 178.678 34.2633 178.473 34.478C178.268 34.6927 177.969 34.8 177.577 34.8H172.929V33.82H177.283C177.563 33.82 177.703 33.68 177.703 33.4V30.796H177.507C177.395 31.0013 177.236 31.202 177.031 31.398C176.826 31.594 176.56 31.7573 176.233 31.888C175.906 32.0093 175.5 32.07 175.015 32.07C174.427 32.07 173.886 31.93 173.391 31.65C172.896 31.37 172.504 30.9733 172.215 30.46C171.926 29.9373 171.781 29.3213 171.781 28.612ZM175.309 31.09C176.018 31.09 176.592 30.866 177.031 30.418C177.479 29.97 177.703 29.354 177.703 28.57V28.458C177.703 27.6647 177.479 27.0487 177.031 26.61C176.592 26.162 176.018 25.938 175.309 25.938C174.609 25.938 174.03 26.162 173.573 26.61C173.125 27.0487 172.901 27.6647 172.901 28.458V28.57C172.901 29.354 173.125 29.97 173.573 30.418C174.03 30.866 174.609 31.09 175.309 31.09ZM181.1 32V22.2H182.206V32H181.1ZM187.667 32.196C186.976 32.196 186.37 32.0513 185.847 31.762C185.324 31.4633 184.918 31.048 184.629 30.516C184.34 29.984 184.195 29.368 184.195 28.668V28.5C184.195 27.7907 184.34 27.17 184.629 26.638C184.918 26.106 185.32 25.6953 185.833 25.406C186.346 25.1073 186.934 24.958 187.597 24.958C188.241 24.958 188.81 25.098 189.305 25.378C189.8 25.6487 190.187 26.0407 190.467 26.554C190.747 27.0673 190.887 27.6693 190.887 28.36V28.864H185.301C185.329 29.6013 185.567 30.18 186.015 30.6C186.463 31.0107 187.023 31.216 187.695 31.216C188.283 31.216 188.736 31.0807 189.053 30.81C189.37 30.5393 189.613 30.2173 189.781 29.844L190.733 30.306C190.593 30.5953 190.397 30.8847 190.145 31.174C189.902 31.4633 189.58 31.706 189.179 31.902C188.787 32.098 188.283 32.196 187.667 32.196ZM185.315 27.954H189.767C189.73 27.3193 189.51 26.8247 189.109 26.47C188.717 26.1153 188.213 25.938 187.597 25.938C186.972 25.938 186.458 26.1153 186.057 26.47C185.656 26.8247 185.408 27.3193 185.315 27.954Z" fill="#D9D9D9"/>
</svg>
